<svg xmlns="http://www.w3.org/2000/svg" xmlns:xlink="http://www.w3.org/1999/xlink" viewBox="0,0,256,256" width="480px" height="480px" fill-rule="nonzero"><g fill="#ffffff" fill-rule="nonzero" stroke="none" stroke-width="1" stroke-linecap="butt" stroke-linejoin="miter" stroke-miterlimit="10" stroke-dasharray="" stroke-dashoffset="0" font-family="none" font-weight="none" font-size="none" text-anchor="none" style="mix-blend-mode: normal"><g transform="scale(10.66667,10.66667)"><path d="M4.3125,0l-4.125,18.96875h5.46875l1.34375,-6.28125h3.90625c3.74219,0 6.88281,-2.29687 7.71875,-6.21875c0.94922,-4.44141 -2.23047,-6.46875 -4.96875,-6.46875zM8.96875,3.875h2.65625c1.33984,0 2.23438,1.15234 1.84375,2.59375c-0.33594,1.44141 -1.72656,2.59375 -3.125,2.59375h-2.5625zM20.96875,5.4375c-0.00391,0.57031 -0.04297,1.16797 -0.1875,1.84375c-0.37109,1.74609 -1.13672,3.28906 -2.1875,4.5c-0.44141,1.30469 -1.73047,2.3125 -3.03125,2.3125h-0.0625c-1.26172,0.57422 -2.6875,0.875 -4.21875,0.875h-2.4375l-1.03125,4.84375l-0.3125,1.4375h-1.5l-0.59375,2.75h5.46875l1.34375,-6.28125h3.90625c3.74219,0 6.87891,-2.32812 7.71875,-6.25c0.70313,-3.29687 -0.89844,-5.23828 -2.875,-6.03125z"></path></g></g></svg>